#!OML:ASF H:\MichaelJackson\Top Level 1\Subject 1\Session 1\male.ASF
:FULLY-SPECIFIED
:DEGREES
1027
root 27.5341 16.5823 16.5866 -166.935 -3.30638 -176.454
lowerback 1.00783 0.0745836 5.04625
upperback 0.334937 0.08219 1.60038
thorax -0.213813 0.011035 -1.18528
lowerneck -7.43391 -0.719218 0.568984
upperneck 4.64006 -1.0283 0.145203
head 2.77054 -0.495408 -0.100087
rclavicle -7.95139e-016 -2.44505e-014
rhumerus -220.897 176.529 -265.551
rradius 31.1082
rwrist 19.9378
rhand -18.9356 -22.0282
rfingers 7.12502
rthumb 7.36736 -411.88
lclavicle -7.95139e-016 -2.44505e-014
lhumerus -20.6301 -40.5182 80.7072
lradius 112.11
lwrist -9.73778
lhand -27.4595 4.43678
lfingers 7.12502
lthumb -0.863863 34.4148
rfemur -11.1141 -1.68248 23.5513
rtibia 30.151
rfoot -23.864 -12.2097
rtoes -23.6839
lfemur -47.1218 7.27986 -20.5901
ltibia 41.6716
lfoot -4.36094 -4.97408
ltoes 31.1365
1028
root 27.544 16.5915 16.683 -166.816 -3.20945 -176.537
lowerback 1.19545 0.129971 4.97339
upperback 0.312323 0.170999 1.55919
thorax -0.337426 0.0534842 -1.18834
lowerneck -7.39558 -0.691351 0.638202
upperneck 4.22704 -1.00005 0.197391
head 2.62371 -0.480167 -0.0924656
rclavicle 5.86415e-015 -2.32578e-014
rhumerus -221.14 176.185 -265.479
rradius 31.3086
rwrist 19.549
rhand -18.9015 -22.0133
rfingers 7.12502
rthumb 7.40019 -411.864
lclavicle 5.86415e-015 -2.32578e-014
lhumerus -22.3721 -41.6451 82.2861
lradius 110.728
lwrist -7.6236
lhand -19.6201 9.50608
lfingers 7.12502
lthumb 6.70654 39.3799
rfemur -11.4916 -1.97958 23.5125
rtibia 29.9315
rfoot -24.0292 -12.1141
rtoes -23.2382
lfemur -47.3654 8.03185 -21.032
ltibia 42.2058
lfoot -4.27395 -5.36541
ltoes 31.1883
1029
root 27.554 16.5997 16.7773 -166.752 -3.15314 -176.625
lowerback 1.39912 0.160981 4.89866
upperback 0.305889 0.227504 1.50903
thorax -0.455301 0.0803608 -1.1995
lowerneck -7.3361 -0.653194 0.718152
upperneck 3.80258 -0.959452 0.246079
head 2.46994 -0.459703 -0.087296
rclavicle -1.68967e-015 3.95581e-014
rhumerus -221.35 175.966 -265.378
rradius 31.5361
rwrist 19.1778
rhand -18.8081 -21.9219
rfingers 7.12502
rthumb 7.49039 -411.769
lclavicle -1.68967e-015 3.95581e-014
lhumerus -24.0114 -42.648 83.7681
lradius 109.207
lwrist -5.19517
lhand -11.4787 14.2341
lfingers 7.12502
lthumb 14.5593 43.7032
rfemur -11.8115 -2.17524 23.5025
rtibia 29.7478
rfoot -24.1379 -12.2243
rtoes -22.8324
lfemur -47.5338 8.6425 -21.3782
ltibia 42.9201
lfoot -4.32827 -5.72644
ltoes 31.1602
1030
root 27.5632 16.6063 16.8693 -166.731 -3.14308 -176.699
lowerback 1.60286 0.170214 4.84842
upperback 0.312651 0.254002 1.45871
thorax -0.561227 0.0925419 -1.2242
lowerneck -7.26539 -0.606568 0.801197
upperneck 3.38092 -0.907531 0.280206
head 2.31594 -0.434878 -0.0869438
rclavicle -1.88845e-015 1.21259e-014
rhumerus -221.531 175.83 -265.255
rradius 31.7827
rwrist 18.7963
rhand -18.6063 -21.772
rfingers 7.12502
rthumb 7.68512 -411.612
lclavicle -1.88845e-015 1.21259e-014
lhumerus -25.5525 -43.5628 85.1667
lradius 107.527
lwrist -2.49957
lhand -3.63967 18.8835
lfingers 7.12502
lthumb 22.0999 47.6406
rfemur -12.0846 -2.27184 23.5313
rtibia 29.5983
rfoot -24.1876 -12.5401
rtoes -22.518
lfemur -47.6441 9.09896 -21.6025
ltibia 43.8047
lfoot -4.51579 -6.02551
ltoes 31.0202
1031
root 27.5715 16.6106 16.959 -166.742 -3.17383 -176.733
lowerback 1.80439 0.183513 4.86947
upperback 0.332267 0.284971 1.41616
thorax -0.652033 0.106752 -1.28093
lowerneck -7.22989 -0.574814 0.842214
upperneck 2.992 -0.872561 0.315906
head 2.18033 -0.4195 -0.0799763
rclavicle 4.47266e-015 1.31198e-014
rhumerus -221.686 175.796 -265.086
rradius 32.0485
rwrist 18.3726
rhand -18.3878 -21.5596
rfingers 7.12502
rthumb 7.89608 -411.392
lclavicle 4.47266e-015 1.31198e-014
lhumerus -26.9748 -44.4785 86.5056
lradius 105.672
lwrist 0.337763
lhand 3.59634 23.5871
lfingers 7.12502
lthumb 29.0302 51.3456
rfemur -12.3302 -2.26451 23.6192
rtibia 29.4923
rfoot -24.1862 -13.0173
rtoes -22.2702
lfemur -47.7173 9.42814 -21.6836
ltibia 44.8474
lfoot -4.80869 -6.2392
ltoes 30.7282
1032
root 27.5782 16.6126 17.0462 -166.764 -3.22665 -176.747
lowerback 1.9779 0.187031 4.92489
upperback 0.354802 0.301123 1.37977
thorax -0.724731 0.113613 -1.35021
lowerneck -7.19153 -0.533332 0.883255
upperneck 2.62452 -0.823549 0.320034
head 2.05188 -0.398361 -0.0826053
rclavicle 8.84592e-015 1.47101e-014
rhumerus -221.822 175.768 -264.915
rradius 32.3323
rwrist 17.881
rhand -18.1759 -21.3215
rfingers 7.12502
rthumb 8.10057 -411.146
lclavicle 8.84592e-015 1.47101e-014
lhumerus -28.3645 -45.3865 87.8251
lradius 103.661
lwrist 3.1293
lhand 9.72191 28.3518
lfingers 7.12502
lthumb 34.8625 54.9398
rfemur -12.5783 -2.19042 23.7239
rtibia 29.4438
rfoot -24.157 -13.568
rtoes -22.0659
lfemur -47.7745 9.66754 -21.6729
ltibia 46.0296
lfoot -5.18385 -6.35309
ltoes 30.2708
1033
root 27.5831 16.6128 17.1305 -166.789 -3.285 -176.73
lowerback 2.12181 0.196459 5.03052
upperback 0.375835 0.323735 1.35236
thorax -0.781632 0.123473 -1.43842
lowerneck -7.16377 -0.493827 0.906781
upperneck 2.293 -0.775005 0.2998
head 1.93779 -0.37829 -0.0901609
rclavicle -1.1778e-014 -2.8625e-014
rhumerus -221.951 175.753 -264.733
rradius 32.6429
rwrist 17.3388
rhand -17.931 -21.0934
rfingers 7.12502
rthumb 8.3369 -410.909
lclavicle -1.1778e-014 -2.8625e-014
lhumerus -29.7527 -46.3187 89.1683
lradius 101.504
lwrist 5.666
lhand 14.5468 33.0088
lfingers 7.12502
lthumb 39.4249 58.4057
rfemur -12.8509 -2.07548 23.8478
rtibia 29.4676
rfoot -24.1148 -14.1123
rtoes -21.9035
lfemur -47.8296 9.87148 -21.5804
ltibia 47.3309
lfoot -5.61252 -6.37535
ltoes 29.675
1034
root 27.5861 16.6115 17.2121 -166.806 -3.32792 -176.678
lowerback 2.22938 0.211686 5.17411
upperback 0.392625 0.352307 1.33609
thorax -0.821805 0.136138 -1.53648
lowerneck -7.1291 -0.445867 0.930282
upperneck 1.97726 -0.714272 0.248153
head 1.82807 -0.352968 -0.10719
rclavicle 7.30534e-015 2.64384e-014
rhumerus -222.073 175.741 -264.541
rradius 32.9893
rwrist 16.7954
rhand -17.6558 -20.8861
rfingers 7.12502
rthumb 8.60251 -410.691
lclavicle 7.30534e-015 2.64384e-014
lhumerus -31.1939 -47.2548 90.5709
lradius 99.2116
lwrist 7.63932
lhand 18.063 37.2021
lfingers 7.12502
lthumb 42.7265 61.544
rfemur -13.1678 -1.9621 23.9816
rtibia 29.5727
rfoot -24.0746 -14.571
rtoes -21.8043
lfemur -47.8936 10.0897 -21.4284
ltibia 48.726
lfoot -6.049 -6.31579
ltoes 29.0118
1035
root 27.5872 16.6096 17.2907 -166.81 -3.33631 -176.609
lowerback 2.30025 0.237337 5.3313
upperback 0.403743 0.392883 1.32554
thorax -0.846184 0.154873 -1.63651
lowerneck -7.10103 -0.393069 0.947178
upperneck 1.6917 -0.646326 0.178016
head 1.72988 -0.324331 -0.128759
rclavicle 7.10655e-015 3.57812e-014
rhumerus -222.181 175.659 -264.376
rradius 33.3492
rwrist 16.185
rhand -17.402 -20.7291
rfingers 7.12502
rthumb 8.84743 -410.524
lclavicle 7.10655e-015 3.57812e-014
lhumerus -32.7273 -48.1648 92.0608
lradius 96.7951
lwrist 8.82229
lhand 20.5292 40.57
lfingers 7.12502
lthumb 45.0277 64.0586
rfemur -13.5378 -1.89521 24.0996
rtibia 29.7593
rfoot -24.0544 -14.8611
rtoes -21.7245
lfemur -47.964 10.3544 -21.2503
ltibia 50.1865
lfoot -6.45326 -6.19329
ltoes 28.3366
1036
root 27.5868 16.6076 17.3661 -166.812 -3.30175 -176.515
lowerback 2.3449 0.265761 5.48542
upperback 0.408386 0.43547 1.32609
thorax -0.862247 0.174537 -1.7234
lowerneck -7.04338 -0.319616 0.989174
upperneck 1.41065 -0.552117 0.0797789
head 1.62835 -0.282967 -0.162371
rclavicle -3.8266e-015 -7.55382e-015
rhumerus -222.275 175.502 -264.236
rradius 33.7262
rwrist 15.5994
rhand -17.1715 -20.6054
rfingers 7.12502
rthumb 9.06988 -410.39
lclavicle -3.8266e-015 -7.55382e-015
lhumerus -34.3759 -48.9668 93.6391
lradius 94.2582
lwrist 9.06801
lhand 22.3652 42.8461
lfingers 7.12502
lthumb 46.7317 65.6296
rfemur -13.9487 -1.90185 24.2114
rtibia 30.0198
rfoot -24.0628 -14.9486
rtoes -21.6677
lfemur -48.0242 10.6943 -21.0432
ltibia 51.6832
lfoot -6.80301 -6.03422
ltoes 27.7128
1037
root 27.5846 16.6061 17.4386 -166.804 -3.22021 -176.417
lowerback 2.36158 0.292495 5.61197
upperback 0.403914 0.473929 1.33143
thorax -0.872369 0.192301 -1.78975
lowerneck -6.955 -0.221313 1.06452
upperneck 1.13477 -0.426873 -0.0415784
head 1.52376 -0.226243 -0.207729
rclavicle -1.00883e-014 -6.75868e-015
rhumerus -222.346 175.247 -264.134
rradius 34.1052
rwrist 15.0409
rhand -16.9445 -20.5026
rfingers 7.12502
rthumb 9.28889 -410.278
lclavicle -1.00883e-014 -6.75868e-015
lhumerus -36.1244 -49.5703 95.2779
lradius 91.6111
lwrist 8.33448
lhand 23.9194 43.88
lfingers 7.12502
lthumb 48.1672 66.0144
rfemur -14.4045 -2.02952 24.2945
rtibia 30.3415
rfoot -24.1067 -14.8029
rtoes -21.6418
lfemur -48.0702 11.1061 -20.8346
ltibia 53.1842
lfoot -7.08855 -5.84269
ltoes 27.1239
